<?xml version="1.0" encoding="UTF-8" standalone="no"?>
<svg
   xmlns:dc="http://purl.org/dc/elements/1.1/"
   xmlns:cc="http://creativecommons.org/ns#"
   xmlns:rdf="http://www.w3.org/1999/02/22-rdf-syntax-ns#"
   xmlns:svg="http://www.w3.org/2000/svg"
   xmlns="http://www.w3.org/2000/svg"
   xmlns:sodipodi="http://sodipodi.sourceforge.net/DTD/sodipodi-0.dtd"
   xmlns:inkscape="http://www.inkscape.org/namespaces/inkscape"
   id="Layer_1"
   style="enable-background:new 0 0 64 64;"
   version="1.1"
   viewBox="0 0 64 64"
   xml:space="preserve"
   inkscape:version="0.91 r13725"
   sodipodi:docname="cart.svg"><metadata
     id="metadata4220"><rdf:RDF><cc:Work
         rdf:about=""><dc:format>image/svg+xml</dc:format><dc:type
           rdf:resource="http://purl.org/dc/dcmitype/StillImage" /><dc:title></dc:title></cc:Work></rdf:RDF></metadata><defs
     id="defs4218" /><sodipodi:namedview
     pagecolor="#ffffff"
     bordercolor="#666666"
     borderopacity="1"
     objecttolerance="10"
     gridtolerance="10"
     guidetolerance="10"
     inkscape:pageopacity="0"
     inkscape:pageshadow="2"
     inkscape:window-width="1918"
     inkscape:window-height="1059"
     id="namedview4216"
     showgrid="true"
     inkscape:snap-bbox="true"
     inkscape:snap-bbox-midpoints="true"
     inkscape:snap-bbox-edge-midpoints="true"
     inkscape:bbox-nodes="true"
     inkscape:bbox-paths="true"
     inkscape:object-paths="false"
     inkscape:object-nodes="true"
     inkscape:snap-intersection-paths="true"
     inkscape:snap-object-midpoints="true"
     inkscape:snap-text-baseline="false"
     inkscape:snap-center="true"
     inkscape:zoom="14.109375"
     inkscape:cx="25.518732"
     inkscape:cy="32.148137"
     inkscape:window-x="0"
     inkscape:window-y="19"
     inkscape:window-maximized="0"
     inkscape:current-layer="Layer_1"><inkscape:grid
       type="xygrid"
       id="grid4236" /></sodipodi:namedview><style
     type="text/css"
     id="style4207">
	.st0{fill:#134563;}
</style><path
     class="st0"
     d="m 49.9,54 c -3,0 -5.5,-2.5 -5.5,-5.5 0,-3 2.5,-5.5 5.5,-5.5 3,0 5.5,2.5 5.5,5.5 0,3 -2.5,5.5 -5.5,5.5 l 0,0 z m 0,-8.3 c -1.5,0 -2.8,1.2 -2.8,2.8 0,1.6 1.2,2.8 2.8,2.8 1.6,0 2.8,-1.2 2.8,-2.8 0,-1.6 -1.3,-2.8 -2.8,-2.8 l 0,0 z"
     id="Fill-112"
     inkscape:connector-curvature="0"
     style="fill:#134563" /><path
     class="st0"
     d="m 16.9,54 c -3,0 -5.5,-2.5 -5.5,-5.5 0,-3 2.5,-5.5 5.5,-5.5 3,0 5.5,2.5 5.5,5.5 0,3 -2.5,5.5 -5.5,5.5 l 0,0 z m 0,-8.3 c -1.5,0 -2.8,1.2 -2.8,2.8 0,1.6 1.2,2.8 2.8,2.8 1.6,0 2.8,-1.2 2.8,-2.8 0,-1.6 -1.3,-2.8 -2.8,-2.8 l 0,0 z"
     id="Fill-113"
     inkscape:connector-curvature="0"
     style="fill:#134563" /><path
     style="fill:none;fill-rule:evenodd;stroke:#134563;stroke-width:3;stroke-linecap:round;stroke-linejoin:round;stroke-miterlimit:4;stroke-dasharray:none;stroke-opacity:1"
     d="m 10,11 8,0 3,26 33,-7 0,-11 -35,0"
     id="path4238"
     inkscape:connector-curvature="0"
     sodipodi:nodetypes="cccccc" /></svg>