<?xml version="1.0" encoding="UTF-8" standalone="no"?>
<svg
   xmlns:dc="http://purl.org/dc/elements/1.1/"
   xmlns:cc="http://creativecommons.org/ns#"
   xmlns:rdf="http://www.w3.org/1999/02/22-rdf-syntax-ns#"
   xmlns:svg="http://www.w3.org/2000/svg"
   xmlns="http://www.w3.org/2000/svg"
   xmlns:sodipodi="http://sodipodi.sourceforge.net/DTD/sodipodi-0.dtd"
   xmlns:inkscape="http://www.inkscape.org/namespaces/inkscape"
   id="Layer_1"
   style="enable-background:new 0 0 64 64;"
   version="1.1"
   viewBox="0 0 64 64"
   xml:space="preserve"
   inkscape:version="0.91 r13725"
   sodipodi:docname="cart.svg"
   inkscape:export-filename="/home/bikulov/Projects/FROST FISH.github.io/img/cart.png"
   inkscape:export-xdpi="194.7541"
   inkscape:export-ydpi="194.7541"><metadata
     id="metadata4220"><rdf:RDF><cc:Work
         rdf:about=""><dc:format>image/svg+xml</dc:format><dc:type
           rdf:resource="http://purl.org/dc/dcmitype/StillImage" /><dc:title></dc:title></cc:Work></rdf:RDF></metadata><defs
     id="defs4218" /><sodipodi:namedview
     pagecolor="#ffffff"
     bordercolor="#666666"
     borderopacity="1"
     objecttolerance="10"
     gridtolerance="10"
     guidetolerance="10"
     inkscape:pageopacity="0"
     inkscape:pageshadow="2"
     inkscape:window-width="1918"
     inkscape:window-height="1042"
     id="namedview4216"
     showgrid="true"
     inkscape:snap-bbox="true"
     inkscape:snap-bbox-midpoints="true"
     inkscape:snap-bbox-edge-midpoints="true"
     inkscape:bbox-nodes="true"
     inkscape:bbox-paths="true"
     inkscape:object-paths="false"
     inkscape:object-nodes="true"
     inkscape:snap-intersection-paths="true"
     inkscape:snap-object-midpoints="true"
     inkscape:snap-text-baseline="false"
     inkscape:snap-center="true"
     inkscape:zoom="4.9884174"
     inkscape:cx="-40.410736"
     inkscape:cy="57.398924"
     inkscape:window-x="0"
     inkscape:window-y="1477"
     inkscape:window-maximized="0"
     inkscape:current-layer="Layer_1"><inkscape:grid
       type="xygrid"
       id="grid4236" /></sodipodi:namedview><style
     type="text/css"
     id="style4207">
	.st0{fill:#134563;}
</style><path
     class="st0"
     d="m 41.4,56.5 c -3,0 -5.5,-2.5 -5.5,-5.5 0,-3 2.5,-5.5 5.5,-5.5 3,0 5.5,2.5 5.5,5.5 0,3 -2.5,5.5 -5.5,5.5 l 0,0 z m 0,-8.3 c -1.5,0 -2.8,1.2 -2.8,2.8 0,1.6 1.2,2.8 2.8,2.8 1.6,0 2.8,-1.2 2.8,-2.8 0,-1.6 -1.3,-2.8 -2.8,-2.8 l 0,0 z"
     id="Fill-112"
     inkscape:connector-curvature="0"
     style="fill:#0078b4;fill-opacity:1;stroke:#0078b4;stroke-opacity:1" /><path
     class="st0"
     d="m 12.4,56.5 c -3,0 -5.5,-2.5 -5.5,-5.5 0,-3 2.5,-5.5 5.5,-5.5 3,0 5.5,2.5 5.5,5.5 0,3 -2.5,5.5 -5.5,5.5 l 0,0 z m 0,-8.3 c -1.5,0 -2.8,1.2 -2.8,2.8 0,1.6 1.2,2.8 2.8,2.8 1.6,0 2.8,-1.2 2.8,-2.8 0,-1.6 -1.3,-2.8 -2.8,-2.8 l 0,0 z"
     id="Fill-113"
     inkscape:connector-curvature="0"
     style="fill:#0078b4;fill-opacity:1;stroke:#0078b4;stroke-opacity:1" /><path
     style="fill:none;fill-rule:evenodd;stroke:#0078b4;stroke-width:6;stroke-linecap:square;stroke-linejoin:miter;stroke-miterlimit:4;stroke-dasharray:none;stroke-opacity:1"
     d="M 0,-1 8,-1 20,36 53,26 53,9 13,9"
     id="path4238"
     inkscape:connector-curvature="0"
     sodipodi:nodetypes="cccccc"
     inkscape:export-xdpi="123"
     inkscape:export-ydpi="123" /><ellipse
     style="fill:#0078b4;fill-opacity:1;stroke:#0078b4;stroke-width:3;stroke-linecap:round;stroke-linejoin:round;stroke-miterlimit:4;stroke-dasharray:none;stroke-opacity:1"
     id="path4263"
     cx="12"
     cy="50.5"
     rx="2.5"
     ry="2" /><ellipse
     style="fill:#0078b4;fill-opacity:1;stroke:#0078b4;stroke-width:3;stroke-linecap:round;stroke-linejoin:round;stroke-miterlimit:4;stroke-dasharray:none;stroke-opacity:1"
     id="path4265"
     cx="41.5"
     cy="51"
     rx="3"
     ry="2.5" /><path
     style="fill:#0078b4;fill-rule:evenodd;stroke:#0078b4;stroke-width:1px;stroke-linecap:butt;stroke-linejoin:miter;stroke-opacity:1;fill-opacity:1"
     d="M 14,12 20,34 51,24 52,10 Z"
     id="path5184"
     inkscape:connector-curvature="0" /></svg>